<svg xmlns="http://www.w3.org/2000/svg" xmlns:xlink="http://www.w3.org/1999/xlink" width="76.383" height="51.421" viewBox="0 0 76.383 51.421"><defs><linearGradient id="a" x1="0.5" y1="1" x2="0.5" gradientUnits="objectBoundingBox"><stop offset="0.178" stop-color="#cb9b61"/><stop offset="1" stop-color="#fbe09e"/></linearGradient></defs><g transform="translate(-848 -355)"><g transform="translate(848 355)"><g transform="translate(0 0)"><path d="M828.311,366.3a5.385,5.385,0,0,1-5.385-5.385V320.331a5.386,5.386,0,0,1,7.416-4.988l24.279,9.885a5.385,5.385,0,0,1-4.061,9.975L833.7,328.338V360.92A5.385,5.385,0,0,1,828.311,366.3Z" transform="translate(-822.926 -314.946)" fill="url(#a)"/><g transform="translate(41.19 0.062)"><path d="M974.841,366.487a5.385,5.385,0,0,1-5.385-5.385V328.5l-17.016,6.888a5.386,5.386,0,0,1-4.041-9.984l24.422-9.884a5.385,5.385,0,0,1,7.405,4.992V361.1A5.385,5.385,0,0,1,974.841,366.487Z" transform="translate(-945.032 -315.129)" fill="url(#a)"/></g></g></g></g></svg>