<svg id="Grupo_495" data-name="Grupo 495" xmlns="http://www.w3.org/2000/svg" width="28.717" height="47.7" viewBox="0 0 28.717 47.7">
  <path id="Trazado_75" data-name="Trazado 75" d="M-480.042,199.3l13.91-21.241,13.524,21.379-.041.061c-.139-.058-.279-.114-.417-.175q-6.308-2.814-12.614-5.635a.975.975,0,0,0-.862-.016q-6.558,2.792-13.125,5.561c-.1.044-.209.08-.313.121Z" transform="translate(480.618 -178.063)" fill="#fafafa"/>
  <path id="Trazado_76" data-name="Trazado 76" d="M-484.267,319.178c1.028-.435,1.987-.842,2.947-1.247q5.625-2.375,11.25-4.751a.764.764,0,0,1,.674-.025q6.782,3.043,13.571,6.068c.08.036.155.081.275.145-.148.09-.258.162-.372.226q-6.751,3.786-13.5,7.575a.5.5,0,0,1-.558,0q-7-3.906-14-7.8C-484.055,319.324-484.126,319.271-484.267,319.178Z" transform="translate(484.267 -294.679)" fill="#fafafa"/>
  <path id="Trazado_77" data-name="Trazado 77" d="M-451.427,384.2l-14,19.536-14-19.548.049-.06c.1.055.21.106.311.165q6.55,3.8,13.1,7.607a.69.69,0,0,0,.8.011q6.677-3.818,13.37-7.61c.105-.06.213-.114.32-.171Z" transform="translate(480.088 -356.031)" fill="#fafafa"/>
</svg>
