<svg xmlns="http://www.w3.org/2000/svg" width="18.027" height="23.874" viewBox="0 0 18.027 23.874">
  <path id="Trazado_17" data-name="Trazado 17" d="M78.436,652.007l-.986-1.062-3.055-3.29-4.3-4.628a.309.309,0,0,0-.453,0l-4.3,4.628-4.04,4.352c-.184.2.227.52.227.52h1.118v13.215a.309.309,0,0,0,.309.31h4.659v-7.507a.709.709,0,0,1,.709-.709h3.082a.71.71,0,0,1,.709.709v7.507h4.659a.309.309,0,0,0,.309-.31V652.527h1.118A.31.31,0,0,0,78.436,652.007Z" transform="translate(-60.875 -642.553)" fill="none" stroke="#9498bd" stroke-linecap="round" stroke-linejoin="round" stroke-width="0.75"/>
</svg>
