<svg xmlns="http://www.w3.org/2000/svg" width="14.55" height="18.625" viewBox="0 0 14.55 18.625">
  <g id="Grupo_94" data-name="Grupo 94" transform="translate(0.5 0.5)">
    <path id="Trazado_23" data-name="Trazado 23" d="M469.1,578.756a6.493,6.493,0,0,1,.074.982,6.693,6.693,0,0,1-6.775,6.609,6.982,6.982,0,0,1-1.286-.119" transform="translate(-455.627 -570.511)" fill="none" stroke="#fff" stroke-linecap="round" stroke-linejoin="round" stroke-width="1"/>
    <path id="Trazado_24" data-name="Trazado 24" d="M455.694,580.528a6.484,6.484,0,0,1-.067-.931,6.679,6.679,0,0,1,6.283-6.592" transform="translate(-455.627 -570.37)" fill="none" stroke="#fff" stroke-linecap="round" stroke-linejoin="round" stroke-width="1"/>
    <path id="Trazado_25" data-name="Trazado 25" d="M462.8,575.635l2.223-1.576,2.223-1.576-2.51-1.09-2.51-1.09.288,2.666Z" transform="translate(-455.627 -570.304)" fill="none" stroke="#fff" stroke-linecap="round" stroke-linejoin="round" stroke-width="1"/>
    <path id="Trazado_26" data-name="Trazado 26" d="M461.5,583.321l-2.728.317-2.728.317,1.646,2.146,1.646,2.146,1.082-2.464Z" transform="translate(-455.627 -570.623)" fill="none" stroke="#fff" stroke-linecap="round" stroke-linejoin="round" stroke-width="1"/>
  </g>
</svg>
